HIERARCHY
ROOT Hips
{
	OFFSET 0.000000 0.000000 0.000000
	CHANNELS 6 Xposition Yposition Zposition Zrotation Yrotation Xrotation 
	JOINT LowerBack
	{
		OFFSET 0.000000 0.000000 0.000000
		CHANNELS 3 Zrotation Yrotation Xrotation
		JOINT Spine
		{
			OFFSET 0.028270 2.035590 -0.193380
			CHANNELS 3 Zrotation Yrotation Xrotation
			JOINT Spine1
			{
				OFFSET 0.056720 2.048850 -0.042750
				CHANNELS 3 Zrotation Yrotation Xrotation
				JOINT Neck
				{
					OFFSET 0.000000 0.000000 0.000000
					CHANNELS 3 Zrotation Yrotation Xrotation
					JOINT Neck1
					{
						OFFSET -0.054170 1.746240 0.172020
						CHANNELS 3 Zrotation Yrotation Xrotation
						JOINT Head
						{
							OFFSET 0.104070 1.761360 -0.123970
							CHANNELS 3 Zrotation Yrotation Xrotation
							End Site
							{
								OFFSET 0.000000 0.000000 0.000000
							}
						}
					}
				}
				JOINT LeftShoulder
				{
					OFFSET 0.000000 0.000000 0.000000
					CHANNELS 3 Zrotation Yrotation Xrotation
					JOINT LeftArm
					{
						OFFSET 3.362410 1.200890 -0.311210
						CHANNELS 3 Zrotation Yrotation Xrotation
						JOINT LeftForeArm
						{
							OFFSET 4.983000 -0.000000 -0.000000
							CHANNELS 3 Zrotation Yrotation Xrotation
							JOINT LeftHand
							{
								OFFSET 3.483560 -0.000000 -0.000000
								CHANNELS 3 Zrotation Yrotation Xrotation
								JOINT LeftFingerBase
								{
									OFFSET 0.000000 0.000000 0.000000
									CHANNELS 3 Zrotation Yrotation Xrotation
									JOINT LeftHandIndex1
									{
										OFFSET 0.715260 -0.000000 -0.000000
										CHANNELS 3 Zrotation Yrotation Xrotation
										End Site
										{
											OFFSET 0.000000 0.000000 0.000000
										}
									}
								}
								JOINT LThumb
								{
									OFFSET 0.000000 0.000000 0.000000
									CHANNELS 3 Zrotation Yrotation Xrotation
									End Site
									{
										OFFSET 0.000000 0.000000 0.000000
									}
								}
							}
						}
					}
				}
				JOINT RightShoulder
				{
					OFFSET 0.000000 0.000000 0.000000
					CHANNELS 3 Zrotation Yrotation Xrotation
					JOINT RightArm
					{
						OFFSET -3.136600 1.374050 -0.404650
						CHANNELS 3 Zrotation Yrotation Xrotation
						JOINT RightForeArm
						{
							OFFSET -5.241900 -0.000000 -0.000000
							CHANNELS 3 Zrotation Yrotation Xrotation
							JOINT RightHand
							{
								OFFSET -3.444170 -0.000000 -0.000000
								CHANNELS 3 Zrotation Yrotation Xrotation
								JOINT RightFingerBase
								{
									OFFSET 0.000000 0.000000 0.000000
									CHANNELS 3 Zrotation Yrotation Xrotation
									JOINT RightHandIndex1
									{
										OFFSET -0.622530 -0.000000 -0.000000
										CHANNELS 3 Zrotation Yrotation Xrotation
										End Site
										{
											OFFSET 0.000000 0.000000 0.000000
										}
									}
								}
								JOINT RThumb
								{
									OFFSET 0.000000 0.000000 0.000000
									CHANNELS 3 Zrotation Yrotation Xrotation
									End Site
									{
										OFFSET 0.000000 0.000000 0.000000
									}
								}
							}
						}
					}
				}
			}
		}
	}
}
}
MOTION
Frames: 9
Frame Time: 0.008333
4.235997 16.994779 -2.217376 108.381560 -78.533793 -109.100457 -14.037379 -0.113571 10.435689 -3.521107 0.503392 -1.097397 -6.690591 0.595804 0.108450 10.541167 -7.594269 -6.331340 -3.587888 -0.273870 0.023188 0.000000 0.000000 0.000000 -2.990562 9.086381 1.240522 -71.266752 9.638113 5.772915 -3.405968 -25.643497 0.003174 2.292365 0.134433 0.004462 -0.054529 -0.074471 -0.000000 0.000000 0.000000 0.000000 0.000000 0.000000 0.000000 17.274294 -3.870574 0.858533 72.671816 -2.440233 3.328452 2.631506 26.786863 0.009126 -1.362540 7.102610 -0.089728 0.078353 -0.071914 0.000000 0.000000 0.000000 0.000000 0.000000 0.000000 0.000000 
4.248822 16.981538 -2.196339 110.598248 -78.540545 -111.267669 -13.787076 -0.098328 10.240504 -3.459056 0.527719 -1.130703 -6.666700 0.615608 0.156461 10.386849 -7.338869 -6.310154 -3.584270 -0.273335 0.031179 0.000000 0.000000 0.000000 -3.420554 9.612539 1.231800 -70.955872 8.819999 5.279159 -3.397733 -25.767274 0.003561 2.597221 -0.010357 0.001584 -0.055777 -0.070258 -0.000000 0.000000 0.000000 0.000000 0.000000 0.000000 0.000000 17.058130 -3.584079 0.812835 72.289341 -1.909122 3.371238 2.656190 26.686699 0.009210 -1.306275 7.054076 -0.085628 0.079120 -0.072544 0.000000 0.000000 0.000000 0.000000 0.000000 0.000000 0.000000 
4.261690 16.968107 -2.175054 112.687408 -78.583739 -113.311099 -13.496028 -0.110499 10.046631 -3.386601 0.524136 -1.163023 -6.641575 0.608178 0.204202 10.253508 -7.129413 -6.311939 -3.577772 -0.272318 0.034064 0.000000 0.000000 0.000000 -3.803102 10.113038 1.226524 -70.716776 8.056405 4.666631 -3.383732 -25.940659 0.004060 2.985208 -0.218800 -0.003892 -0.057199 -0.065796 -0.000000 0.000000 0.000000 0.000000 0.000000 0.000000 0.000000 16.857211 -3.354209 0.769919 71.900396 -1.332573 3.415702 2.680052 26.631994 0.009298 -1.243482 7.014159 -0.081328 0.079815 -0.073457 0.000000 0.000000 0.000000 0.000000 0.000000 0.000000 0.000000 
4.274898 16.955043 -2.154854 114.627989 -78.647334 -115.259154 -13.197106 -0.140153 9.900032 -3.311852 0.501706 -1.186716 -6.618027 0.583083 0.244456 10.151369 -6.968513 -6.330083 -3.570144 -0.270994 0.032752 0.000000 0.000000 0.000000 -4.110266 10.551778 1.225062 -70.546958 7.365085 3.965567 -3.364390 -26.158106 0.004642 3.438142 -0.488375 -0.012767 -0.058677 -0.061261 -0.000000 0.000000 0.000000 0.000000 0.000000 0.000000 0.000000 16.687683 -3.179765 0.733206 71.520954 -0.724594 3.432522 2.699023 26.637085 0.009374 -1.192383 6.996792 -0.078028 0.080317 -0.074818 0.000000 0.000000 0.000000 0.000000 0.000000 0.000000 0.000000 
4.288639 16.942863 -2.136827 116.381763 -78.716480 -117.104550 -12.917413 -0.179398 9.827470 -3.242151 0.467865 -1.196370 -6.598199 0.548003 0.272341 10.085713 -6.857412 -6.357397 -3.562961 -0.269560 0.028577 0.000000 0.000000 0.000000 -4.322588 10.898252 1.227483 -70.438630 6.757964 3.214177 -3.340614 -26.410550 0.005263 3.931723 -0.810027 -0.025939 -0.060114 -0.056799 -0.000000 0.000000 0.000000 0.000000 0.000000 0.000000 0.000000 16.560060 -3.059174 0.704348 71.165250 -0.101514 3.396735 2.709970 26.712222 0.009422 -1.172525 7.016239 -0.077027 0.080581 -0.076771 0.000000 0.000000 0.000000 0.000000 0.000000 0.000000 0.000000 
4.302829 16.932251 -2.121639 117.881233 -78.784493 -118.781724 -12.673211 -0.224441 9.831440 -3.182492 0.426207 -1.190592 -6.583462 0.506487 0.285871 10.057140 -6.794743 -6.386823 -3.557543 -0.268217 0.023222 0.000000 0.000000 0.000000 -4.431249 11.130870 1.233806 -70.378711 6.239328 2.455072 -3.313934 -26.684720 0.005883 4.438701 -1.168743 -0.043615 -0.061460 -0.052496 -0.000000 0.000000 0.000000 0.000000 0.000000 0.000000 0.000000 16.479137 -2.990949 0.682888 70.845479 0.516434 3.285234 2.710878 26.865461 0.009434 -1.200892 7.084604 -0.079625 0.080621 -0.079410 0.000000 0.000000 0.000000 0.000000 0.000000 0.000000 0.000000 
4.317221 16.923753 -2.109528 119.051144 -78.858306 -120.199183 -12.467420 -0.275511 9.896613 -3.134322 0.376603 -1.171558 -6.574460 0.458229 0.286002 10.062181 -6.784265 -6.413647 -3.554406 -0.267093 0.018133 0.000000 0.000000 0.000000 -4.438283 11.236213 1.243101 -70.350897 5.809619 1.726368 -3.286184 -26.968451 0.006462 4.930886 -1.543769 -0.064892 -0.062702 -0.048397 -0.000000 0.000000 0.000000 0.000000 0.000000 0.000000 0.000000 16.443684 -2.981662 0.666899 70.568629 1.115733 3.095135 2.700969 27.096560 0.009404 -1.294280 7.210971 -0.087021 0.080542 -0.082754 0.000000 0.000000 0.000000 0.000000 0.000000 0.000000 0.000000 
4.331164 16.918030 -2.100148 119.849445 -78.955549 -121.280254 -12.287965 -0.334807 9.994581 -3.095308 0.317065 -1.144569 -6.571315 0.400848 0.274943 10.092726 -6.819522 -6.432989 -3.553773 -0.266300 0.015026 0.000000 0.000000 0.000000 -4.355753 11.215716 1.254939 -70.338380 5.457470 1.066321 -3.259544 -27.242580 0.006959 5.383542 -1.912879 -0.088570 -0.063879 -0.044480 -0.000000 0.000000 0.000000 0.000000 0.000000 0.000000 0.000000 16.445027 -3.028212 0.653130 70.340113 1.672455 2.812400 2.680617 27.407780 0.009326 -1.459100 7.399577 -0.100116 0.080433 -0.086765 0.000000 0.000000 0.000000 0.000000 0.000000 0.000000 0.000000 
4.344065 16.915423 -2.093177 120.247738 -79.092198 -121.961673 -12.118244 -0.404972 10.093510 -3.061572 0.245336 -1.115500 -6.573179 0.331692 0.257166 10.139737 -6.901107 -6.443423 -3.555023 -0.265853 0.014823 0.000000 0.000000 0.000000 -4.201798 11.080276 1.267554 -70.324390 5.168045 0.503176 -3.236208 -27.491836 0.007347 5.774987 -2.252850 -0.112450 -0.065063 -0.040722 -0.000000 0.000000 0.000000 0.000000 0.000000 0.000000 0.000000 16.472194 -3.134662 0.638038 70.161081 2.175846 2.448175 2.650989 27.792569 0.009190 -1.701110 7.649524 -0.119910 0.080436 -0.091346 0.000000 0.000000 0.000000 0.000000 0.000000 0.000000 0.000000 
